<svg width="80" height="80" viewBox="0 0 80 80" fill="none" xmlns="http://www.w3.org/2000/svg">
<g clip-path="url(#clip0_352_29092)">
<path d="M70.488 27.272C70.024 27.632 61.832 32.248 61.832 42.512C61.832 54.384 72.256 58.584 72.568 58.688C72.52 58.944 70.912 64.44 67.072 70.04C63.648 74.968 60.072 79.888 54.632 79.888C49.192 79.888 47.792 76.728 41.512 76.728C35.392 76.728 33.216 79.992 28.24 79.992C23.264 79.992 19.792 75.432 15.8 69.832C11.176 63.256 7.44 53.04 7.44 43.344C7.44 27.792 17.552 19.544 27.504 19.544C32.792 19.544 37.2 23.016 40.52 23.016C43.68 23.016 48.608 19.336 54.624 19.336C56.904 19.336 65.096 19.544 70.488 27.272ZM51.768 12.752C54.256 9.8 56.016 5.704 56.016 1.608C56.016 1.04 55.968 0.464 55.864 0C51.816 0.152 47 2.696 44.096 6.064C41.816 8.656 39.688 12.752 39.688 16.904C39.688 17.528 39.792 18.152 39.84 18.352C40.096 18.4 40.512 18.456 40.928 18.456C44.56 18.456 49.128 16.024 51.768 12.752Z" fill="#99A2AD"/>
</g>
<defs>
<clipPath id="clip0_352_29092">
<rect width="65.12" height="80" fill="white" transform="translate(7.44)"/>
</clipPath>
</defs>
</svg>
